<svg data-v-fde0c5aa="" xmlns="http://www.w3.org/2000/svg" viewBox="0 0 300 300" class="iconLeft"><!----><defs data-v-fde0c5aa=""><!----></defs><rect data-v-fde0c5aa="" fill="transparent" x="0" y="0" width="300px" height="300px" class="logo-background-square"></rect><defs data-v-fde0c5aa=""><!----></defs><g data-v-fde0c5aa="" id="5576d691-6c0a-4d50-a565-d9d9cd780806" fill="#000000" transform="matrix(3.044284640165239,0,0,3.044284640165239,82.60953770470675,127.6245076407506)"><path d="M4.41 1.29C6.79 1.29 7.88 3.12 7.88 5.50C7.88 7.88 6.79 9.91 4.41 9.91L3.19 9.91L3.19 1.29ZM4.37 10.50C7.88 10.50 9.52 8.25 9.52 5.53C9.52 2.81 7.91 0.70 4.41 0.70L0.59 0.70L0.49 1.29L1.71 1.75L1.71 9.45L0.50 9.91L0.60 10.50ZM15.29 9.28C14.95 9.76 14.45 10.00 13.89 10.00C13.15 10.00 12.40 9.55 12.40 8.27L12.40 3.96L11.80 3.81L10.36 3.96L10.46 4.47L11.09 4.47L11.09 8.15C11.09 9.65 11.84 10.65 13.37 10.65C14.15 10.65 14.66 10.54 15.29 10.00L15.54 10.50L17.42 10.50L17.51 10.00L16.60 9.70L16.60 3.96L16.10 3.81L14.55 3.96L14.64 4.47L15.29 4.47ZM20.44 9.70L20.44 4.84C20.89 4.63 21.39 4.47 21.94 4.47C22.68 4.47 23.32 5.00 23.32 5.89L23.32 9.70L22.41 10.00L22.53 10.50L25.45 10.50L25.55 10.00L24.64 9.70L24.64 6.10C24.64 4.62 23.79 3.81 22.26 3.81C21.53 3.81 21.03 4.05 20.44 4.33L19.94 3.81L18.33 3.96L18.42 4.47L19.12 4.47L19.12 9.70L18.21 10.00L18.31 10.50L21.25 10.50L21.36 10.00ZM30.45 1.29C32.83 1.29 33.92 3.12 33.92 5.50C33.92 7.88 32.83 9.91 30.45 9.91L29.23 9.91L29.23 1.29ZM30.41 10.50C33.92 10.50 35.56 8.25 35.56 5.53C35.56 2.81 33.95 0.70 30.45 0.70L26.63 0.70L26.53 1.29L27.75 1.75L27.75 9.45L26.54 9.91L26.64 10.50ZM41.33 9.28C40.99 9.76 40.49 10.00 39.93 10.00C39.19 10.00 38.44 9.55 38.44 8.27L38.44 3.96L37.84 3.81L36.40 3.96L36.50 4.47L37.13 4.47L37.13 8.15C37.13 9.65 37.88 10.65 39.41 10.65C40.19 10.65 40.70 10.54 41.33 10.00L41.58 10.50L43.46 10.50L43.55 10.00L42.64 9.70L42.64 3.96L42.14 3.81L40.59 3.96L40.68 4.47L41.33 4.47ZM46.48 9.70L46.48 4.84C46.93 4.63 47.43 4.47 47.98 4.47C48.72 4.47 49.36 5.00 49.36 5.89L49.36 9.70L48.45 10.00L48.57 10.50L51.49 10.50L51.59 10.00L50.68 9.70L50.68 6.10C50.68 4.62 49.83 3.81 48.30 3.81C47.57 3.81 47.07 4.05 46.48 4.33L45.98 3.81L44.37 3.96L44.46 4.47L45.16 4.47L45.16 9.70L44.25 10.00L44.35 10.50L47.29 10.50L47.40 10.00ZM55.92 9.67L54.61 9.30C54.22 9.18 53.97 8.99 53.97 8.72C53.97 8.65 54.10 8.41 54.14 8.33C54.50 8.47 54.91 8.54 55.34 8.54C56.87 8.54 58.04 7.69 58.04 6.17C58.04 5.60 57.89 5.12 57.61 4.75L56.77 4.47L58.04 4.47L58.18 3.81L56.41 3.96C56.07 3.86 55.71 3.81 55.30 3.81C53.66 3.81 52.65 4.91 52.65 6.17C52.65 7.03 53.03 7.69 53.65 8.08L52.88 9.37C52.88 9.98 53.42 10.25 53.86 10.39L55.38 10.89C56.08 11.12 56.90 11.48 56.90 12.15C56.90 12.94 56.01 13.36 55.03 13.36C54.00 13.36 53.33 12.74 53.33 12.17C53.33 11.82 53.54 11.44 53.96 11.21L53.68 10.79C53.09 11.00 52.42 11.54 52.42 12.25C52.42 13.41 53.70 14 55.03 14C56.70 14 58.27 13.38 58.27 11.76C58.27 10.61 57.32 10.08 55.92 9.67ZM55.30 4.33C56.11 4.33 56.80 4.90 56.80 6.15C56.80 7.39 56.06 8.02 55.30 8.02C54.53 8.02 53.90 7.32 53.90 6.08C53.91 4.83 54.49 4.33 55.30 4.33Z"></path></g><defs data-v-fde0c5aa=""><linearGradient data-v-fde0c5aa="" gradientTransform="rotate(25)" id="08f18c6f-c112-4012-869f-4947dca8e6fb" x1="0%" y1="0%" x2="100%" y2="0%"><stop data-v-fde0c5aa="" offset="0%" stop-color="#006678" stop-opacity="1"></stop><stop data-v-fde0c5aa="" offset="100%" stop-color="#4FA8FF" stop-opacity="1"></stop></linearGradient></defs><g data-v-fde0c5aa="" id="0d38713a-1f0d-495d-86a2-be748262b738" stroke="none" fill="url(#08f18c6f-c112-4012-869f-4947dca8e6fb)" transform="matrix(1.8979212325710417,0,0,1.8979212325710417,25.18292863323809,119.63326027886333)"><path d="M18.396 26.495L7.807 15.905 18.432 5.28l.707.707-9.918 9.918 9.882 9.883z"></path><path d="M23.194 1v4.194H19V1h4.194m1-1H18v6.194h6.194V0zM23.194 26.806V31H19v-4.194h4.194m1-1H18V32h6.194v-6.194z"></path></g><!----></svg>